<svg width="393" height="460" viewBox="0 0 393 460" fill="none" xmlns="http://www.w3.org/2000/svg">
<g filter="url(#filter0_dd_1_11429)">
<path d="M98.3187 105.727C95.8695 120.344 94.1081 135.261 88.7145 149.013C78.6915 174.573 57.1472 193.643 45.5317 218.476C27.0615 257.965 38.8491 309.963 72.3854 336.932C82.311 344.913 93.7308 350.778 105.602 355.101C148.203 370.611 194.368 364.688 235.042 344.415C275.716 324.142 307.467 289.156 329.275 248.378C347.408 214.473 359.161 172.865 350.93 139.233C347.933 126.982 338.791 114.804 328.907 107.327C311.274 93.9891 287.448 95.3928 265.756 92.4922C245.613 89.7989 229.164 85.4832 211.657 74.8714C192.871 63.4853 182.256 41.0029 160.031 37.7961C151.036 36.4985 139.967 38.9082 132.004 44.0987C122.998 49.9696 114.031 59.6078 108.973 69.3197C103.111 80.5787 100.412 93.2374 98.3187 105.727Z" fill="white"/>
<path d="M298.328 310.152C292.443 314.88 286.405 319.788 282.746 326.49C279.088 333.192 278.376 342.216 283.044 348.214C287.484 353.917 295.258 355.351 302.341 355.773C309.49 356.199 316.675 355.999 323.792 355.18C335.152 353.871 347.28 350.354 354.059 340.869C358.096 335.221 359.718 328.089 360.173 321.091C360.799 311.46 359.163 301.2 353.199 293.757C347.872 287.111 341.627 283.819 333.551 284.883C330.564 285.277 326.833 287.297 324.452 289.17C320.362 292.388 316.331 295.689 312.274 298.949C307.625 302.682 302.976 306.417 298.328 310.152Z" fill="white"/>
<path d="M346.114 169.816H371.557" stroke="#969696" stroke-width="0.786" stroke-miterlimit="10" stroke-linecap="round" stroke-linejoin="round"/>
<path d="M335.886 173.87H361.33" stroke="#969696" stroke-width="0.786" stroke-miterlimit="10" stroke-linecap="round" stroke-linejoin="round"/>
<path d="M208.118 116.152H227.657" stroke="#969696" stroke-width="0.786" stroke-miterlimit="10" stroke-linecap="round" stroke-linejoin="round"/>
<path d="M63.2886 258.756H116.233" stroke="#969696" stroke-width="0.786" stroke-miterlimit="10" stroke-linecap="round" stroke-linejoin="round"/>
<path d="M49.6282 262.541H102.572" stroke="#969696" stroke-width="0.786" stroke-miterlimit="10" stroke-linecap="round" stroke-linejoin="round"/>
<path d="M33.0564 281.572H67.2875" stroke="#969696" stroke-width="0.786" stroke-miterlimit="10" stroke-linecap="round" stroke-linejoin="round"/>
<path d="M56.3616 186.688H78.5331" stroke="#969696" stroke-width="0.786" stroke-miterlimit="10" stroke-linecap="round" stroke-linejoin="round"/>
<path d="M169.64 338.208H188.597" stroke="#969696" stroke-width="0.786" stroke-miterlimit="10" stroke-linecap="round" stroke-linejoin="round"/>
<path opacity="0.57" d="M74.1975 230.016C74.1975 228.734 73.1891 227.695 71.9448 227.695C70.7006 227.695 69.6921 228.734 69.6921 230.016C69.6921 231.299 70.7006 232.338 71.9448 232.338C73.1891 232.338 74.1975 231.299 74.1975 230.016Z" fill="white"/>
<path opacity="0.57" d="M278.368 255.608C278.368 254.326 277.36 253.287 276.116 253.287C274.871 253.287 273.863 254.326 273.863 255.608C273.863 256.89 274.871 257.929 276.116 257.929C277.36 257.929 278.368 256.889 278.368 255.608Z" fill="white"/>
<path opacity="0.57" d="M215.075 95.0603C215.075 93.7781 214.067 92.7388 212.822 92.7388C211.578 92.7388 210.57 93.7781 210.57 95.0603C210.57 96.3425 211.578 97.3818 212.822 97.3818C214.067 97.381 215.075 96.3417 215.075 95.0603Z" fill="white"/>
<path d="M236.084 66.1644C237.562 66.1644 238.761 64.9293 238.761 63.4056C238.761 61.8819 237.562 60.6467 236.084 60.6467C234.605 60.6467 233.406 61.8819 233.406 63.4056C233.406 64.9293 234.605 66.1644 236.084 66.1644Z" stroke="#969696" stroke-width="0.786" stroke-miterlimit="10"/>
<path d="M114.565 157.409C115.538 157.409 116.326 156.596 116.326 155.594C116.326 154.592 115.538 153.78 114.565 153.78C113.593 153.78 112.805 154.592 112.805 155.594C112.805 156.596 113.593 157.409 114.565 157.409Z" stroke="#969696" stroke-width="0.786" stroke-miterlimit="10"/>
<path d="M231.339 357.114C231.339 356.112 230.551 355.3 229.579 355.3C228.606 355.3 227.818 356.112 227.818 357.114C227.818 358.116 228.606 358.928 229.579 358.928C230.551 358.928 231.339 358.116 231.339 357.114Z" stroke="#969696" stroke-width="0.786" stroke-miterlimit="10"/>
<path d="M48.5192 140.093C49.4916 140.093 50.2798 139.28 50.2798 138.278C50.2798 137.276 49.4916 136.464 48.5192 136.464C47.5468 136.464 46.7585 137.276 46.7585 138.278C46.7585 139.28 47.5468 140.093 48.5192 140.093Z" stroke="#969696" stroke-width="0.786" stroke-miterlimit="10"/>
<path d="M101.958 331.462C103.727 331.462 105.161 329.984 105.161 328.161C105.161 326.338 103.727 324.86 101.958 324.86C100.189 324.86 98.7551 326.338 98.7551 328.161C98.7551 329.984 100.189 331.462 101.958 331.462Z" stroke="#969696" stroke-width="0.786" stroke-miterlimit="10"/>
<path d="M120.039 333.077C120.039 332.075 119.251 331.262 118.278 331.262C117.306 331.262 116.518 332.075 116.518 333.077C116.518 334.079 117.306 334.891 118.278 334.891C119.251 334.891 120.039 334.079 120.039 333.077Z" stroke="#969696" stroke-width="0.786" stroke-miterlimit="10"/>
<path d="M361.085 111.139C362.057 111.139 362.846 110.326 362.846 109.324C362.846 108.322 362.057 107.51 361.085 107.51C360.112 107.51 359.324 108.322 359.324 109.324C359.324 110.326 360.112 111.139 361.085 111.139Z" stroke="#969696" stroke-width="0.786" stroke-miterlimit="10"/>
<path d="M350.135 100.681C351.904 100.681 353.338 99.2028 353.338 97.3799C353.338 95.5569 351.904 94.0791 350.135 94.0791C348.366 94.0791 346.932 95.5569 346.932 97.3799C346.932 99.2028 348.366 100.681 350.135 100.681Z" stroke="#969696" stroke-width="0.786" stroke-miterlimit="10"/>
<path d="M113.073 139.21L116.376 135.805" stroke="#969696" stroke-width="0.786" stroke-miterlimit="10" stroke-linecap="round" stroke-linejoin="round"/>
<path d="M120.993 131.048L124.296 127.643" stroke="#969696" stroke-width="0.786" stroke-miterlimit="10" stroke-linecap="round" stroke-linejoin="round"/>
<path d="M124.296 139.21L120.993 135.805" stroke="#969696" stroke-width="0.786" stroke-miterlimit="10" stroke-linecap="round" stroke-linejoin="round"/>
<path d="M116.376 131.048L113.072 127.643" stroke="#969696" stroke-width="0.786" stroke-miterlimit="10" stroke-linecap="round" stroke-linejoin="round"/>
<path d="M262.488 274.179L265.234 271.35" stroke="#969696" stroke-width="0.786" stroke-miterlimit="10" stroke-linecap="round" stroke-linejoin="round"/>
<path d="M269.072 267.394L271.818 264.564" stroke="#969696" stroke-width="0.786" stroke-miterlimit="10" stroke-linecap="round" stroke-linejoin="round"/>
<path d="M271.818 274.179L269.072 271.35" stroke="#969696" stroke-width="0.786" stroke-miterlimit="10" stroke-linecap="round" stroke-linejoin="round"/>
<path d="M265.234 267.394L262.488 264.564" stroke="#969696" stroke-width="0.786" stroke-miterlimit="10" stroke-linecap="round" stroke-linejoin="round"/>
<path opacity="0.57" d="M199.355 309.225C234.618 309.225 263.204 306.57 263.204 303.295C263.204 300.02 234.618 297.365 199.355 297.365C164.092 297.365 135.506 300.02 135.506 303.295C135.506 306.57 164.092 309.225 199.355 309.225Z" fill="white"/>
<path d="M78.9061 156.969L71.4226 140.609C70.8803 139.424 70.3867 139.018 69.974 138.777L57.2212 131.308L59.5045 127.167L72.2574 134.636C73.695 135.477 74.7576 136.73 75.6034 138.579L83.0869 154.938L78.9061 156.969Z" fill="#969696"/>
<path d="M77.4628 155.222C76.2963 155.785 75.7941 157.217 76.3411 158.419L137.144 292.3C137.832 293.813 139.133 294.828 140.599 295.178C141.67 295.434 142.828 295.335 143.901 294.817C146.441 293.59 147.535 290.471 146.343 287.853L85.5405 153.972C84.9934 152.77 83.6038 152.252 82.4374 152.816L77.4628 155.222Z" fill="#2B3134"/>
<path d="M81.4686 110.379C82.7802 97.2876 75.4695 85.7836 65.1397 84.6845C54.8099 83.5854 45.3726 93.3074 44.061 106.399C42.7493 119.491 50.06 130.995 60.3899 132.094C70.7197 133.193 80.157 123.471 81.4686 110.379Z" fill="#0D0D0D"/>
<path d="M85.1402 110.77C86.4519 97.6781 79.1412 86.1741 68.8113 85.0751C58.4815 83.976 49.0442 93.6979 47.7326 106.79C46.421 119.881 53.7317 131.385 64.0615 132.484C74.3913 133.584 83.8286 123.862 85.1402 110.77Z" fill="#DAE7F9"/>
<path opacity="0.8" d="M54.6792 112.47L67.9932 125.047" stroke="white" stroke-width="0.786" stroke-miterlimit="10" stroke-linecap="round" stroke-linejoin="round"/>
<path opacity="0.8" d="M53.5723 105.138L66.8863 117.715" stroke="white" stroke-width="0.786" stroke-miterlimit="10" stroke-linecap="round" stroke-linejoin="round"/>
<path d="M333.249 240.629H227.866C224.917 240.629 222.527 238.165 222.527 235.127V81.2401C222.527 78.2018 224.917 75.7386 227.866 75.7386H333.25C336.198 75.7386 338.589 78.2018 338.589 81.2401V235.127C338.588 238.165 336.198 240.629 333.249 240.629Z" fill="#2B3134"/>
<path d="M327.514 229.219V87.1504L233.598 87.1504L233.598 229.219L327.514 229.219Z" fill="white"/>
<path d="M319.212 102.635H241.902V108.233H319.212V102.635Z" fill="white"/>
<path d="M280.557 113.22H241.902V118.731H280.557V113.22Z" fill="white"/>
<path d="M280.557 121.869H241.902V127.381H280.557V121.869Z" fill="white"/>
<path d="M280.557 130.519H241.902V136.03H280.557V130.519Z" fill="white"/>
<path d="M280.557 139.168H241.902V144.68H280.557V139.168Z" fill="white"/>
<path d="M280.557 147.818H241.902V153.329H280.557V147.818Z" fill="white"/>
<path d="M280.557 156.467H241.902V161.978H280.557V156.467Z" fill="white"/>
<path d="M280.557 165.117H241.902V170.628H280.557V165.117Z" fill="white"/>
<path d="M318.545 113.22H286.414V170.627H318.545V113.22Z" fill="#EDCAB8"/>
<path d="M318.545 175.69H241.902V219.756H318.545V175.69Z" fill="white"/>
<path d="M311.689 92.7598H249.425V77.3155C249.425 73.4631 252.455 70.3406 256.193 70.3406H304.921C308.659 70.3406 311.689 73.4631 311.689 77.3155V92.7598Z" fill="#969696"/>
<path d="M280.187 52.1003C274.764 52.1003 270.368 56.8015 270.368 62.6011V78.2827H290.006V62.6011C290.005 56.8015 285.609 52.1003 280.187 52.1003ZM280.187 63.7295C278.842 63.7295 277.751 62.606 277.751 61.2201C277.751 59.8342 278.842 58.7107 280.187 58.7107C281.531 58.7107 282.622 59.8342 282.622 61.2201C282.621 62.606 281.531 63.7295 280.187 63.7295Z" fill="#969696"/>
<path d="M196.759 139.45C190.463 139.45 186.802 138.009 177.364 133.507C167.927 129.005 159.684 129.282 159.684 129.282C140.276 129.282 125.985 143.592 124.004 165.496C124.004 165.496 121.66 184.017 133.587 226.257C145.995 270.2 147.888 278.664 158.139 288.273C160.426 290.195 163.347 291.348 166.528 291.348C170.601 291.348 174.246 289.459 176.683 286.484C176.683 286.484 180.772 281.545 184.355 269.029C187.88 256.712 190.405 245.167 196.759 245.167C203.113 245.167 205.637 256.712 209.163 269.029C212.745 281.546 216.835 286.484 216.835 286.484C219.271 289.458 222.916 291.348 226.989 291.348C230.171 291.348 233.092 290.195 235.379 288.273C245.629 278.664 247.523 270.2 259.93 226.257C271.857 184.017 269.513 165.496 269.513 165.496C267.533 143.592 253.241 129.282 233.834 129.282C233.834 129.282 225.59 129.005 216.153 133.507C206.716 138.009 203.055 139.45 196.759 139.45Z" fill="white"/>
<g opacity="0.45">
<path d="M159.878 276.012C145.738 236.68 135.57 192.472 134.024 165.384C133.358 153.712 136.348 141.87 141.213 134.44C131.658 140.456 125.279 151.399 124.005 165.496C124.005 165.496 121.661 184.016 133.588 226.256C145.996 270.199 147.889 278.664 158.139 288.272C160.427 290.195 163.347 291.348 166.529 291.348C169.833 291.348 172.843 290.09 175.167 288.032C165.257 289.037 159.878 276.012 159.878 276.012Z" fill="white"/>
</g>
<path opacity="0.45" d="M212.062 145.29C221.171 145.29 226.242 141.573 233.87 139.27C241.219 137.051 250.952 136.754 258.316 139.29C252.059 132.905 243.594 129.282 233.833 129.282C233.833 129.282 225.589 129.005 216.153 133.507C206.716 138.009 203.054 139.45 196.759 139.45C192.588 139.45 189.565 138.81 185.26 137.074C196.444 145.858 212.062 145.29 212.062 145.29Z" fill="white"/>
<path d="M230.838 140.293C227.032 142.728 222.728 144.347 218.304 145.277C216.091 145.757 213.833 146.016 211.568 146.133C209.301 146.219 207.027 146.103 204.772 145.829C200.264 145.246 195.858 143.862 191.803 141.802C187.746 139.737 184.043 137.01 180.805 133.834C184.436 136.526 188.285 138.833 192.316 140.654C194.353 141.512 196.403 142.339 198.53 142.895C200.641 143.499 202.79 143.972 204.968 144.223C209.312 144.811 213.737 144.709 218.091 144.038C220.268 143.695 222.434 143.23 224.562 142.6C226.702 142.005 228.797 141.23 230.838 140.293Z" fill="#0D0D0D"/>
<path opacity="0.45" d="M250.786 171.353C251.933 174.728 251.746 178.405 252.089 181.963C252.199 183.1 252.421 184.341 253.276 185.07C253.831 185.543 254.575 185.72 255.295 185.738C257.516 185.795 259.616 184.456 260.968 182.639C262.32 180.823 263.38 178.392 263.829 176.15C264.727 171.662 264.745 167.422 263.829 162.939C263.227 159.996 261.775 156.723 259.526 154.685C257.402 152.759 254.523 151.913 251.732 152.313C246.903 153.005 244.807 157.233 246.233 161.869C247.275 165.257 249.648 168.004 250.786 171.353Z" fill="white"/>
<path d="M200.197 139.776C193.902 139.776 190.241 138.335 180.805 133.834C171.369 129.332 163.126 129.61 163.126 129.61C143.721 129.61 129.431 143.918 127.451 165.819C127.451 165.819 125.107 184.338 137.033 226.573C149.439 270.511 151.332 278.974 161.581 288.581C163.868 290.504 166.788 291.657 169.97 291.657C174.042 291.657 177.687 289.768 180.123 286.794C180.123 286.794 184.212 281.856 187.795 269.341C191.32 257.025 193.844 245.48 200.197 245.48C206.55 245.48 209.074 257.024 212.599 269.341C216.181 281.856 220.27 286.794 220.27 286.794C222.707 289.768 226.351 291.657 230.424 291.657C233.605 291.657 236.525 290.504 238.813 288.581C249.061 278.974 250.955 270.511 263.361 226.573C275.286 184.338 272.942 165.819 272.942 165.819C270.962 143.918 256.672 129.61 237.267 129.61C237.267 129.61 229.024 129.332 219.589 133.834C210.153 138.336 206.491 139.776 200.197 139.776Z" stroke="#969696" stroke-width="0.786" stroke-miterlimit="10"/>
<path d="M146.894 234.461H82.2271V254.972H146.894V234.461Z" fill="#969696"/>
<path d="M102.069 242.239C102.576 243.619 103.859 244.532 105.29 244.532H123.832C125.264 244.532 126.546 243.619 127.053 242.239L129.084 236.711H146.894V228.817C146.894 224.256 143.306 220.559 138.88 220.559H90.2404C85.8144 220.559 82.2263 224.256 82.2263 228.817V236.711H100.036L102.069 242.239Z" fill="#0D0D0D"/>
<path d="M129.085 246.291L127.053 251.819C126.546 253.199 125.263 254.111 123.832 254.111H105.29C103.858 254.111 102.576 253.198 102.069 251.819L100.037 246.291H82.228V312.767C82.228 315.211 84.1514 317.193 86.5235 317.193H142.6C144.972 317.193 146.895 315.211 146.895 312.767V246.291H129.085Z" fill="#0D0D0D"/>
<path d="M114.56 272.582C113.576 272.582 113.004 272.357 111.529 271.653C110.054 270.949 108.765 270.993 108.765 270.993C105.732 270.993 103.498 273.229 103.19 276.653C103.19 276.653 102.823 279.547 104.687 286.148C106.626 293.016 106.922 294.339 108.524 295.841C108.882 296.141 109.338 296.322 109.835 296.322C110.472 296.322 111.042 296.026 111.422 295.561C111.422 295.561 112.061 294.789 112.621 292.833C113.172 290.908 113.566 289.104 114.559 289.104C115.552 289.104 115.946 290.909 116.497 292.833C117.057 294.789 117.697 295.561 117.697 295.561C118.077 296.026 118.647 296.322 119.284 296.322C119.781 296.322 120.237 296.141 120.595 295.841C122.197 294.339 122.493 293.016 124.432 286.148C126.296 279.547 125.929 276.653 125.929 276.653C125.62 273.229 123.387 270.993 120.353 270.993C120.353 270.993 119.065 270.949 117.591 271.653C116.116 272.357 115.544 272.582 114.56 272.582Z" fill="white"/>
<path opacity="0.4" d="M103.835 317.193H86.5233C84.1511 317.193 82.2278 315.211 82.2278 312.767V254.972V246.291V236.712V234.462V228.818C82.2278 224.257 85.8159 220.56 90.2418 220.56C90.2418 220.56 87.4602 307.821 103.835 317.193Z" fill="#0D0D0D"/>
<path d="M135.997 246.543C145.555 232.141 159.52 220.989 174.631 216.817C189.175 212.803 207.895 214.52 217.57 226.409C226.509 237.394 225.818 253.765 221.367 267.349C216.916 280.933 209.287 293.288 205.458 307.071C203.079 315.639 202.817 326.29 209.514 331.928C216.884 338.132 228.159 334.461 235.735 328.526C243.311 322.59 248.61 314.416 257.631 311.29C259.274 310.72 262.069 310.432 263.799 311.2C266.471 312.386 267.46 315.806 267.586 318.519C267.817 323.474 266.578 328.144 265.06 332.851C264.033 336.035 262.611 339.125 262.191 342.451C261.77 345.779 262.588 349.544 265.225 351.511C269.333 354.577 275.077 351.814 279.089 348.617C298.605 333.067 309.424 306.658 306.626 281.401C303.973 257.457 286.415 228.265 262.768 220.559" stroke="#2B3134" stroke-width="0.5895" stroke-miterlimit="10"/>
<path d="M181.422 109.325H137.064C133.455 109.325 130.53 106.31 130.53 102.591V86.033C130.53 82.3143 133.455 79.2995 137.064 79.2995H181.422C185.031 79.2995 187.957 82.3143 187.957 86.033V102.591C187.956 106.31 185.03 109.325 181.422 109.325Z" fill="#2B3134"/>
<path d="M169.934 109.324C169.934 109.324 169.934 114.268 174.305 114.268C174.305 114.268 171.958 111.681 174.305 109.324H169.934Z" fill="#2B3134"/>
<path d="M160.56 95.0596H106.579C102.187 95.0596 98.6267 91.3903 98.6267 86.8648V66.7145C98.6267 62.1882 102.187 58.5197 106.579 58.5197H160.56C164.953 58.5197 168.512 62.189 168.512 66.7145V86.864C168.512 91.3903 164.952 95.0596 160.56 95.0596Z" fill="#0D0D0D"/>
<path d="M146.58 95.0593C146.58 95.0593 146.58 101.075 151.899 101.075C151.899 101.075 149.043 97.9284 151.899 95.0593H146.58Z" fill="#0D0D0D"/>
<path d="M137.332 76.7891C137.332 74.6475 135.647 72.9109 133.569 72.9109C131.491 72.9109 129.805 74.6475 129.805 76.7891C129.805 78.9308 131.491 80.6674 133.569 80.6674C135.647 80.6674 137.332 78.9316 137.332 76.7891Z" fill="white"/>
<path d="M122.041 76.7892C122.041 74.6475 120.356 72.9109 118.278 72.9109C116.2 72.9109 114.515 74.6475 114.515 76.7892C114.515 78.9308 116.2 80.6675 118.278 80.6675C120.357 80.6675 122.041 78.9316 122.041 76.7892Z" fill="white"/>
<path d="M152.623 76.7891C152.623 74.6475 150.938 72.9109 148.86 72.9109C146.782 72.9109 145.096 74.6475 145.096 76.7891C145.096 78.9308 146.782 80.6674 148.86 80.6674C150.938 80.6674 152.623 78.9316 152.623 76.7891Z" fill="white"/>
<path d="M163.074 60.2462H109.092C104.701 60.2462 101.14 63.9155 101.14 68.4409V88.5905C101.14 93.1168 104.701 96.7853 109.092 96.7853H149.094C149.094 96.7853 149.094 102.801 154.414 102.801C154.414 102.801 151.558 99.6543 154.414 96.7853H163.075C167.467 96.7853 171.027 93.116 171.027 88.5905V68.4418C171.027 63.9155 167.466 60.2462 163.074 60.2462Z" stroke="#969696" stroke-width="0.786" stroke-miterlimit="10"/>
</g>
<defs>
<filter id="filter0_dd_1_11429" x="-31.3367" y="5.45033" width="467.286" height="454.438" filterUnits="userSpaceOnUse" color-interpolation-filters="sRGB">
<feFlood flood-opacity="0" result="BackgroundImageFix"/>
<feColorMatrix in="SourceAlpha" type="matrix" values="0 0 0 0 0 0 0 0 0 0 0 0 0 0 0 0 0 0 127 0" result="hardAlpha"/>
<feOffset dy="32"/>
<feGaussianBlur stdDeviation="32"/>
<feComposite in2="hardAlpha" operator="out"/>
<feColorMatrix type="matrix" values="0 0 0 0 0 0 0 0 0 0 0 0 0 0 0 0 0 0 0.04 0"/>
<feBlend mode="normal" in2="BackgroundImageFix" result="effect1_dropShadow_1_11429"/>
<feColorMatrix in="SourceAlpha" type="matrix" values="0 0 0 0 0 0 0 0 0 0 0 0 0 0 0 0 0 0 127 0" result="hardAlpha"/>
<feMorphology radius="1" operator="dilate" in="SourceAlpha" result="effect2_dropShadow_1_11429"/>
<feOffset/>
<feGaussianBlur stdDeviation="1"/>
<feComposite in2="hardAlpha" operator="out"/>
<feColorMatrix type="matrix" values="0 0 0 0 0 0 0 0 0 0 0 0 0 0 0 0 0 0 0.02 0"/>
<feBlend mode="normal" in2="effect1_dropShadow_1_11429" result="effect2_dropShadow_1_11429"/>
<feBlend mode="normal" in="SourceGraphic" in2="effect2_dropShadow_1_11429" result="shape"/>
</filter>
</defs>
</svg>
